<svg width="200" height="200" viewBox="0 0 200 200" fill="none" xmlns="http://www.w3.org/2000/svg">
  <!-- Mage Character -->
  <!-- Head/Hat -->
  <circle cx="100" cy="70" r="25" fill="#64748B" />
  <path d="M75 70C80 50 120 50 125 70L130 90H70L75 70Z" fill="#7C3AED" />
  <path d="M80 70C85 55 115 55 120 70L123 80H77L80 70Z" fill="#8B5CF6" />
  <circle cx="100" cy="60" r="5" fill="#E9D5FF" />
  <circle cx="92" cy="65" r="3" fill="white" />
  <circle cx="92" cy="65" r="1.5" fill="#1E293B" />
  <circle cx="108" cy="65" r="3" fill="white" />
  <circle cx="108" cy="65" r="1.5" fill="#1E293B" />
  
  <!-- Body/Robe -->
  <path d="M80 90V135C85 145 115 145 120 135V90H80Z" fill="#7C3AED" />
  <path d="M75 90H125L120 100H80L75 90Z" fill="#8B5CF6" />
  <path d="M80 110H120L115 120H85L80 110Z" fill="#8B5CF6" />
  <rect x="95" y="90" width="10" height="45" fill="#8B5CF6" />
  
  <!-- Cape -->
  <path d="M80 90C60 95 55 135 55 155C75 145 90 145 100 150C110 145 125 145 145 155C145 135 140 95 120 90" fill="#7C3AED" />
  
  <!-- Arms -->
  <rect x="80" y="95" width="8" height="30" rx="4" fill="#8B5CF6" />
  <rect x="112" y="95" width="8" height="30" rx="4" fill="#8B5CF6" />
  <circle cx="84" cy="130" r="6" fill="#8B5CF6" />
  <circle cx="116" cy="130" r="6" fill="#8B5CF6" />
  
  <!-- Staff -->
  <rect x="130" y="100" width="6" height="70" rx="3" fill="#92400E" />
  <path d="M133 100C133 95 133 70 133 65C135 60 145 60 145 65V75C145 80 135 80 133 75V70" stroke="#92400E" stroke-width="6" />
  <circle cx="133" cy="60" r="10" fill="#A855F7" />
  <circle cx="133" cy="60" r="6" fill="#C084FC" />
  <circle cx="133" cy="60" r="3" fill="#E9D5FF" />
  
  <!-- Legs -->
  <path d="M85 135L80 170H90L92 135C90 136 87 136 85 135Z" fill="#8B5CF6" />
  <path d="M115 135L120 170H110L108 135C110 136 113 136 115 135Z" fill="#8B5CF6" />
  <rect x="80" y="170" width="10" height="5" rx="2" fill="#7C3AED" />
  <rect x="110" y="170" width="10" height="5" rx="2" fill="#7C3AED" />
</svg> 