<svg width="400" height="100" viewBox="0 0 400 100" fill="none" xmlns="http://www.w3.org/2000/svg">
  <!-- Idle Animation Frames -->
  <g id="idle-1">
    <rect x="10" y="30" width="30" height="40" rx="2" fill="#7C3AED" /> <!-- Robe -->
    <rect x="15" y="10" width="20" height="20" rx="10" fill="#64748B" /> <!-- Head -->
    <rect x="10" y="10" width="30" height="5" fill="#8B5CF6" /> <!-- Hat -->
    <path d="M10 15L15 5L35 5L40 15" fill="#8B5CF6" /> <!-- Hat Top -->
    <rect x="5" y="40" width="10" height="5" fill="#7C3AED" /> <!-- Left Arm -->
    <rect x="35" y="40" width="10" height="5" fill="#7C3AED" /> <!-- Right Arm -->
    <rect x="15" y="70" width="8" height="10" fill="#7C3AED" /> <!-- Left Leg -->
    <rect x="27" y="70" width="8" height="10" fill="#7C3AED" /> <!-- Right Leg -->
    <rect x="20" y="15" width="3" height="3" fill="white" /> <!-- Left Eye -->
    <rect x="27" y="15" width="3" height="3" fill="white" /> <!-- Right Eye -->
    <rect x="10" y="35" width="30" height="5" fill="#8B5CF6" /> <!-- Robe Accent -->
    <rect x="40" y="25" width="15" height="3" fill="#92400E" /> <!-- Staff Handle -->
    <circle cx="55" cy="23" r="5" fill="#E9D5FF" /> <!-- Staff Orb -->
  </g>

  <!-- Attack Animation Frames -->
  <g id="attack-1">
    <rect x="110" y="30" width="30" height="40" rx="2" fill="#7C3AED" /> <!-- Robe -->
    <rect x="115" y="10" width="20" height="20" rx="10" fill="#64748B" /> <!-- Head -->
    <rect x="110" y="10" width="30" height="5" fill="#8B5CF6" /> <!-- Hat -->
    <path d="M110 15L115 5L135 5L140 15" fill="#8B5CF6" /> <!-- Hat Top -->
    <rect x="135" y="35" width="15" height="5" fill="#7C3AED" /> <!-- Right Arm Extended -->
    <rect x="105" y="40" width="10" height="5" fill="#7C3AED" /> <!-- Left Arm -->
    <rect x="115" y="70" width="8" height="10" fill="#7C3AED" /> <!-- Left Leg -->
    <rect x="127" y="70" width="8" height="10" fill="#7C3AED" /> <!-- Right Leg -->
    <rect x="120" y="15" width="3" height="3" fill="#C084FC" /> <!-- Left Eye Glowing -->
    <rect x="127" y="15" width="3" height="3" fill="#C084FC" /> <!-- Right Eye Glowing -->
    <rect x="110" y="35" width="30" height="5" fill="#8B5CF6" /> <!-- Robe Accent -->
    <rect x="150" y="35" width="15" height="3" fill="#92400E" /> <!-- Staff Handle -->
    <circle cx="165" cy="33" r="5" fill="#E9D5FF" /> <!-- Staff Orb -->
    <path d="M170 33L180 25M170 33L180 40M170 33L185 33" stroke="#C084FC" stroke-width="2" /> <!-- Magic Blast -->
  </g>

  <!-- Hurt Animation Frames -->
  <g id="hurt-1">
    <rect x="210" y="35" width="30" height="40" rx="2" fill="#7C3AED" opacity="0.7" /> <!-- Robe Faded -->
    <rect x="215" y="15" width="20" height="20" rx="10" fill="#64748B" opacity="0.7" /> <!-- Head Faded -->
    <rect x="210" y="15" width="30" height="5" fill="#8B5CF6" opacity="0.7" /> <!-- Hat Faded -->
    <path d="M210 20L215 10L235 10L240 20" fill="#8B5CF6" opacity="0.7" /> <!-- Hat Top Faded -->
    <rect x="205" y="45" width="10" height="5" fill="#7C3AED" opacity="0.7" /> <!-- Left Arm -->
    <rect x="235" y="45" width="10" height="5" fill="#7C3AED" opacity="0.7" /> <!-- Right Arm -->
    <rect x="215" y="75" width="8" height="10" fill="#7C3AED" opacity="0.7" /> <!-- Left Leg -->
    <rect x="227" y="75" width="8" height="10" fill="#7C3AED" opacity="0.7" /> <!-- Right Leg -->
    <rect x="220" y="20" width="3" height="3" fill="#FCA5A5" /> <!-- Left Eye Red -->
    <rect x="227" y="20" width="3" height="3" fill="#FCA5A5" /> <!-- Right Eye Red -->
    <rect x="210" y="40" width="30" height="5" fill="#8B5CF6" opacity="0.7" /> <!-- Robe Accent Faded -->
    <path d="M220 30 L230 20 L240 30" stroke="#EF4444" stroke-width="2" /> <!-- Pain Indicator -->
  </g>

  <!-- Victory Animation Frames -->
  <g id="victory-1">
    <rect x="310" y="30" width="30" height="40" rx="2" fill="#7C3AED" /> <!-- Robe -->
    <rect x="315" y="10" width="20" height="20" rx="10" fill="#64748B" /> <!-- Head -->
    <rect x="310" y="10" width="30" height="5" fill="#8B5CF6" /> <!-- Hat -->
    <path d="M310 15L315 5L335 5L340 15" fill="#8B5CF6" /> <!-- Hat Top -->
    <rect x="305" y="30" width="10" height="5" fill="#7C3AED" /> <!-- Left Arm Up -->
    <rect x="335" y="30" width="10" height="5" fill="#7C3AED" /> <!-- Right Arm Up -->
    <rect x="315" y="70" width="8" height="10" fill="#7C3AED" /> <!-- Left Leg -->
    <rect x="327" y="70" width="8" height="10" fill="#7C3AED" /> <!-- Right Leg -->
    <rect x="320" y="15" width="3" height="3" fill="white" /> <!-- Left Eye -->
    <rect x="327" y="15" width="3" height="3" fill="white" /> <!-- Right Eye -->
    <rect x="310" y="35" width="30" height="5" fill="#8B5CF6" /> <!-- Robe Accent -->
    <rect x="315" y="20" width="20" height="2" fill="white" /> <!-- Smile -->
    <path d="M310 15 L305 10 L300 15" stroke="#C084FC" stroke-width="1" /> <!-- Magic Sparkle 1 -->
    <path d="M340 15 L345 10 L350 15" stroke="#C084FC" stroke-width="1" /> <!-- Magic Sparkle 2 -->
    <circle cx="325" cy="5" r="3" fill="#E9D5FF" /> <!-- Magic Sparkle 3 -->
  </g>
</svg> 