<svg width="24" height="24" viewBox="0 0 24 24" fill="none" xmlns="http://www.w3.org/2000/svg">
  <path d="M13.5417 12C13.5417 15.5625 10.75 18.5 7 18.5C3.25 18.5 0.458333 15.5625 0.458333 12C0.458333 8.4375 3.25 5.5 7 5.5C10.75 5.5 13.5417 8.4375 13.5417 12ZM20.5833 12C20.5833 15.3125 19.2083 18 17.5 18C15.7917 18 14.4167 15.3125 14.4167 12C14.4167 8.6875 15.7917 6 17.5 6C19.2083 6 20.5833 8.6875 20.5833 12ZM23.5417 12C23.5417 14.9375 23.125 17.375 22.5833 17.375C22.0417 17.375 21.625 15.0625 21.625 12C21.625 8.9375 22.0417 6.625 22.5833 6.625C23.125 6.625 23.5417 9.0625 23.5417 12Z" fill="currentColor" />
</svg> 