<svg width="32" height="32" viewBox="0 0 32 32" fill="none" xmlns="http://www.w3.org/2000/svg">
  <path d="M27.5821 3.84375L17.6476 11.4241L19.2861 7.08239L27.5821 3.84375Z" fill="#E17726"/>
  <path d="M4.41809 3.84375L14.2746 11.4999L12.7139 7.08239L4.41809 3.84375Z" fill="#E27625"/>
  <path d="M24.0742 21.5781L21.4802 25.7502L27.0773 27.3767L28.6919 21.6781L24.0742 21.5781Z" fill="#E27625"/>
  <path d="M3.31824 21.6781L4.92268 27.3767L10.5198 25.7502L7.92579 21.5781L3.31824 21.6781Z" fill="#E27625"/>
  <path d="M10.2399 14.5249L8.84021 16.9945L14.3732 17.2651L14.1702 11.2861L10.2399 14.5249Z" fill="#E27625"/>
  <path d="M21.7601 14.5252L17.7758 11.2104L17.6477 17.2654L23.1598 16.9948L21.7601 14.5252Z" fill="#E27625"/>
  <path d="M10.5197 25.7502L14.0042 24.0477L11.0333 21.7281L10.5197 25.7502Z" fill="#E27625"/>
  <path d="M17.9958 24.0477L21.4802 25.7502L20.9668 21.7281L17.9958 24.0477Z" fill="#E27625"/>
  <path d="M21.4802 25.7502L17.9958 24.0476L18.2757 26.3889L18.2425 27.3009L21.4802 25.7502Z" fill="#D5BFB2"/>
  <path d="M10.5197 25.7502L13.7574 27.3009L13.7363 26.3889L14.0041 24.0476L10.5197 25.7502Z" fill="#D5BFB2"/>
  <path d="M13.8225 20.0493L10.9398 19.1584L12.9538 18.1705L13.8225 20.0493Z" fill="#233447"/>
  <path d="M18.1776 20.0493L19.0462 18.1705L21.0721 19.1584L18.1776 20.0493Z" fill="#233447"/>
  <path d="M10.5198 25.7502L11.0565 21.5781L7.92578 21.6781L10.5198 25.7502Z" fill="#CC6228"/>
  <path d="M20.9434 21.5781L21.4801 25.7502L24.0741 21.6781L20.9434 21.5781Z" fill="#CC6228"/>
  <path d="M23.1599 16.9948L17.6477 17.2654L18.1776 20.0493L19.0463 18.1706L21.0721 19.1585L23.1599 16.9948Z" fill="#CC6228"/>
  <path d="M10.9398 19.1585L12.9657 18.1706L13.8225 20.0493L14.3733 17.2654L8.8402 16.9948L10.9398 19.1585Z" fill="#CC6228"/>
  <path d="M8.84021 16.9948L11.0334 21.7282L10.9398 19.1585L8.84021 16.9948Z" fill="#E27525"/>
  <path d="M21.0723 19.1585L20.9669 21.7282L23.1601 16.9948L21.0723 19.1585Z" fill="#E27525"/>
  <path d="M14.3733 17.2651L13.8225 20.0492L14.5202 23.2771L14.6694 18.6385L14.3733 17.2651Z" fill="#E27525"/>
  <path d="M17.6475 17.2651L17.3633 18.6266L17.4797 23.2771L18.1774 20.0492L17.6475 17.2651Z" fill="#E27525"/>
  <path d="M18.1775 20.0494L17.4798 23.2773L17.9956 24.0478L20.9666 21.7283L21.0721 19.1586L18.1775 20.0494Z" fill="#F5841F"/>
  <path d="M10.9399 19.1586L11.0334 21.7283L14.0043 24.0478L14.5201 23.2773L13.8225 20.0494L10.9399 19.1586Z" fill="#F5841F"/>
  <path d="M18.2424 27.3009L18.2756 26.3889L18.0165 26.1724H13.9833L13.7363 26.3889L13.7574 27.3009L10.5197 25.7502L11.6664 26.6872L13.941 28.1562H18.0471L20.3335 26.6872L21.4802 25.7502L18.2424 27.3009Z" fill="#C0AC9D"/>
  <path d="M17.9957 24.0477L17.4799 23.2773H14.5201L14.0043 24.0477L13.7365 26.3891L13.9835 26.1726H18.0167L18.2758 26.3891L17.9957 24.0477Z" fill="#161616"/>
  <path d="M28.0485 11.2861L29 7.08239L27.5822 3.84375L17.9957 10.9999L21.7601 14.5249L27.0001 16.1514L28.1468 14.7999L27.6543 14.4514L28.4457 13.7544L27.8496 13.3058L28.641 12.7072L28.0485 11.2861Z" fill="#763E1A"/>
  <path d="M3 7.08239L3.95953 11.2861L3.34876 12.7072L4.15022 13.3058L3.5543 13.7544L4.3457 14.4514L3.85321 14.7999L5 16.1514L10.2399 14.5249L14.0042 10.9999L4.41774 3.84375L3 7.08239Z" fill="#763E1A"/>
  <path d="M27 16.1513L21.7601 14.5249L23.1598 16.9946L20.9666 21.7281L24.0741 21.6781H28.6918L27 16.1513Z" fill="#F5841F"/>
  <path d="M10.2399 14.5249L5 16.1513L3.31824 21.6781H7.92578L11.0333 21.7281L8.84016 16.9946L10.2399 14.5249Z" fill="#F5841F"/>
  <path d="M17.6476 17.2651L18.0033 10.9999L19.2863 7.0823H12.7139L13.9745 10.9999L14.3732 17.2651L14.5082 18.6504L14.5201 23.2773H17.4799L17.4918 18.6504L17.6476 17.2651Z" fill="#F5841F"/>
</svg> 