<svg width="80" height="80" viewBox="0 0 80 80" fill="none" xmlns="http://www.w3.org/2000/svg">
  <path d="M40 10C46.6667 14 53.3333 16 60 16V36C60 46 52 56 40 62C28 56 20 46 20 36V16C26.6667 16 33.3333 14 40 10Z" fill="#64748B" />
  <path d="M40 16C45.3333 19.3333 50.6667 21 56 21V36C56 44 49.6 52 40 57C30.4 52 24 44 24 36V21C29.3333 21 34.6667 19.3333 40 16Z" fill="#A855F7" />
  <path d="M40 24C43.3333 26 46.6667 27 50 27V36C50 41 46.6667 46 40 49C33.3333 46 30 41 30 36V27C33.3333 27 36.6667 26 40 24Z" fill="#64748B" />
  <path d="M40 42L46 36L40 30L34 36L40 42Z" fill="#CBD5E1" />
</svg> 