<svg width="80" height="80" viewBox="0 0 80 80" fill="none" xmlns="http://www.w3.org/2000/svg">
  <path d="M62 18L42 38L38 34L58 14L62 18Z" fill="#A855F7" />
  <path d="M40 40L22 58L18 54L36 36L40 40Z" fill="#A855F7" />
  <path d="M43 37L37 43L33 39L39 33L43 37Z" fill="#A855F7" />
  <path d="M16 60L20 64L24 60L20 56L16 60Z" fill="#A855F7" />
  <path d="M64 16L70 10L72 12L66 18L64 16Z" fill="#A855F7" />
  <path d="M58 14L65 7L70 10L64 16L58 14Z" fill="#CBD5E1" />
  <path d="M65 7L58 14L62 18L70 10L65 7Z" fill="#64748B" />
  <path d="M7 73L13 67L16 70L10 76L7 73Z" fill="#A855F7" />
  <path d="M22 58L7 73L10 76L25 61L22 58Z" fill="#CBD5E1" />
  <path d="M18 54L22 58L25 61L20 64L16 60L14 56L18 54Z" fill="#64748B" />
</svg> 