<svg width="400" height="100" viewBox="0 0 400 100" fill="none" xmlns="http://www.w3.org/2000/svg">
  <!-- Idle Animation Frames -->
  <g id="idle-1">
    <rect x="10" y="30" width="30" height="40" rx="2" fill="#64748B" /> <!-- Body -->
    <rect x="15" y="10" width="20" height="20" rx="10" fill="#64748B" /> <!-- Head -->
    <rect x="5" y="40" width="10" height="5" fill="#64748B" /> <!-- Left Arm -->
    <rect x="35" y="40" width="10" height="5" fill="#64748B" /> <!-- Right Arm -->
    <rect x="15" y="70" width="8" height="10" fill="#64748B" /> <!-- Left Leg -->
    <rect x="27" y="70" width="8" height="10" fill="#64748B" /> <!-- Right Leg -->
    <rect x="20" y="15" width="3" height="3" fill="white" /> <!-- Left Eye -->
    <rect x="27" y="15" width="3" height="3" fill="white" /> <!-- Right Eye -->
    <rect x="10" y="35" width="30" height="5" fill="#A855F7" /> <!-- Armor Accent -->
    <rect x="40" y="25" width="15" height="5" fill="#92400E" /> <!-- Sword Handle -->
    <path d="M55 25L70 20L55 30Z" fill="#94A3B8" /> <!-- Sword Blade -->
  </g>

  <!-- Attack Animation Frames -->
  <g id="attack-1">
    <rect x="110" y="30" width="30" height="40" rx="2" fill="#64748B" /> <!-- Body -->
    <rect x="115" y="10" width="20" height="20" rx="10" fill="#64748B" /> <!-- Head -->
    <rect x="90" y="35" width="20" height="5" fill="#64748B" /> <!-- Left Arm Extended -->
    <rect x="135" y="40" width="10" height="5" fill="#64748B" /> <!-- Right Arm -->
    <rect x="115" y="70" width="8" height="10" fill="#64748B" /> <!-- Left Leg -->
    <rect x="127" y="70" width="8" height="10" fill="#64748B" /> <!-- Right Leg -->
    <rect x="120" y="15" width="3" height="3" fill="white" /> <!-- Left Eye -->
    <rect x="127" y="15" width="3" height="3" fill="white" /> <!-- Right Eye -->
    <rect x="110" y="35" width="30" height="5" fill="#A855F7" /> <!-- Armor Accent -->
    <rect x="75" y="35" width="15" height="5" fill="#92400E" /> <!-- Sword Handle -->
    <path d="M75 32L60 30L75 40Z" fill="#94A3B8" /> <!-- Sword Blade -->
  </g>

  <!-- Hurt Animation Frames -->
  <g id="hurt-1">
    <rect x="210" y="35" width="30" height="40" rx="2" fill="#64748B" opacity="0.7" /> <!-- Body Faded -->
    <rect x="215" y="15" width="20" height="20" rx="10" fill="#64748B" opacity="0.7" /> <!-- Head Faded -->
    <rect x="205" y="45" width="10" height="5" fill="#64748B" opacity="0.7" /> <!-- Left Arm -->
    <rect x="235" y="45" width="10" height="5" fill="#64748B" opacity="0.7" /> <!-- Right Arm -->
    <rect x="215" y="75" width="8" height="10" fill="#64748B" opacity="0.7" /> <!-- Left Leg -->
    <rect x="227" y="75" width="8" height="10" fill="#64748B" opacity="0.7" /> <!-- Right Leg -->
    <rect x="220" y="20" width="3" height="3" fill="#FCA5A5" /> <!-- Left Eye Red -->
    <rect x="227" y="20" width="3" height="3" fill="#FCA5A5" /> <!-- Right Eye Red -->
    <rect x="210" y="40" width="30" height="5" fill="#A855F7" opacity="0.7" /> <!-- Armor Accent Faded -->
    <path d="M220 30 L230 20 L240 30" stroke="#EF4444" stroke-width="2" /> <!-- Pain Indicator -->
  </g>

  <!-- Victory Animation Frames -->
  <g id="victory-1">
    <rect x="310" y="30" width="30" height="40" rx="2" fill="#64748B" /> <!-- Body -->
    <rect x="315" y="10" width="20" height="20" rx="10" fill="#64748B" /> <!-- Head -->
    <rect x="305" y="30" width="10" height="5" fill="#64748B" /> <!-- Left Arm Up -->
    <rect x="335" y="30" width="10" height="5" fill="#64748B" /> <!-- Right Arm Up -->
    <rect x="315" y="70" width="8" height="10" fill="#64748B" /> <!-- Left Leg -->
    <rect x="327" y="70" width="8" height="10" fill="#64748B" /> <!-- Right Leg -->
    <rect x="320" y="15" width="3" height="3" fill="white" /> <!-- Left Eye -->
    <rect x="327" y="15" width="3" height="3" fill="white" /> <!-- Right Eye -->
    <rect x="310" y="35" width="30" height="5" fill="#A855F7" /> <!-- Armor Accent -->
    <rect x="315" y="20" width="20" height="2" fill="white" /> <!-- Smile -->
    <path d="M320 10 L315 5 L310 10" stroke="#FDE68A" stroke-width="1" /> <!-- Victory Sparkle 1 -->
    <path d="M335 10 L340 5 L345 10" stroke="#FDE68A" stroke-width="1" /> <!-- Victory Sparkle 2 -->
  </g>
</svg> 